<svg width="256" height="256" viewBox="0 0 256 256" fill="none" xmlns="http://www.w3.org/2000/svg">
  <rect width="256" height="256" rx="54" fill="url(#bg)" />
  <rect x="1.5" y="1.5" width="253" height="253" rx="52.5" stroke="url(#border)" stroke-width="3" />
  <path
    d="M60 128C60 90.4446 90.4446 60 128 60H160.75C175.799 60 188 72.2013 188 87.25V87.25"
    stroke="url(#ring)"
    stroke-width="8"
    stroke-linecap="round"
  />
  <path
    d="M196 128C196 165.555 165.555 196 128 196H95.25C80.2013 196 68 183.799 68 168.75V168.75"
    stroke="url(#ring)"
    stroke-width="8"
    stroke-linecap="round"
  />
  <path
    d="M57 128H75.5C84.6127 128 92 135.387 92 144.5V144.5C92 153.613 99.3873 161 108.5 161V161C117.613 161 125 153.613 125 144.5V115C125 95.67 140.67 80 160 80V80C179.33 80 195 95.67 195 115V145.5C195 154.613 202.387 162 211.5 162V162C220.613 162 228 154.613 228 145.5V145.5C228 136.387 235.387 129 244.5 129H199"
    opacity="0"
  />
  <path
    d="M56 128H73C83.4934 128 92 136.507 92 147V147C92 157.493 100.507 166 111 166V166C121.493 166 130 157.493 130 147V113C130 90.3563 148.356 72 171 72V72C193.644 72 212 90.3563 212 113V148C212 158.493 220.507 167 231 167V167C241.493 167 250 158.493 250 148V148C250 137.507 258.507 129 269 129H200"
    opacity="0"
  />
  <g filter="url(#glow)">
    <path
      d="M54 128H68C77.3888 128 85 135.611 85 145V145C85 154.389 92.6112 162 102 162V162C111.389 162 119 154.389 119 145V118C119 98.67 134.67 83 154 83V83C173.33 83 189 98.67 189 118V146C189 155.389 196.611 163 206 163V163C215.389 163 223 155.389 223 146V146C223 136.611 230.611 129 240 129H202"
      stroke="url(#wave)"
      stroke-width="9"
      stroke-linecap="round"
      stroke-linejoin="round"
    />
  </g>
  <defs>
    <linearGradient id="bg" x1="38" y1="34" x2="219" y2="225" gradientUnits="userSpaceOnUse">
      <stop stop-color="#2A1952" />
      <stop offset="1" stop-color="#120C24" />
    </linearGradient>
    <linearGradient id="border" x1="32" y1="20" x2="221" y2="232" gradientUnits="userSpaceOnUse">
      <stop stop-color="#6D56D8" stop-opacity="0.78" />
      <stop offset="1" stop-color="#2D3B7D" stop-opacity="0.42" />
    </linearGradient>
    <linearGradient id="ring" x1="60" y1="196" x2="196" y2="60" gradientUnits="userSpaceOnUse">
      <stop stop-color="#D14DFF" />
      <stop offset="0.52" stop-color="#8BB6FF" />
      <stop offset="1" stop-color="#38F1FF" />
    </linearGradient>
    <linearGradient id="wave" x1="54" y1="123" x2="240" y2="123" gradientUnits="userSpaceOnUse">
      <stop stop-color="#B23CFF" />
      <stop offset="0.35" stop-color="#7D52FF" />
      <stop offset="0.68" stop-color="#6BC6FF" />
      <stop offset="1" stop-color="#31F0FF" />
    </linearGradient>
    <filter id="glow" x="36" y="65" width="222" height="116" filterUnits="userSpaceOnUse" color-interpolation-filters="sRGB">
      <feFlood flood-opacity="0" result="BackgroundImageFix" />
      <feBlend mode="normal" in="SourceGraphic" in2="BackgroundImageFix" result="shape" />
      <feGaussianBlur stdDeviation="4.5" result="effect1_foregroundBlur" />
    </filter>
  </defs>
</svg>
