<svg width="1120" height="250" viewBox="0 0 1120 250" fill="none" xmlns="http://www.w3.org/2000/svg">
  <rect width="1120" height="250" fill="none" />
  <path
    d="M85 122C85 64.5624 131.562 18 189 18H219.5C243.524 18 263 37.476 263 61.5V61.5"
    stroke="url(#mono_stroke)"
    stroke-width="18"
    stroke-linecap="round"
  />
  <path
    d="M293 122C293 179.438 246.438 226 189 226H158.5C134.476 226 115 206.524 115 182.5V182.5"
    stroke="url(#mono_stroke)"
    stroke-width="18"
    stroke-linecap="round"
  />
  <path
    d="M91 121H113.5C127.031 121 138 131.969 138 145.5V145.5C138 159.031 148.969 170 162.5 170V170C176.031 170 187 159.031 187 145.5V101C187 72.0051 210.505 48.5 239.5 48.5V48.5C268.495 48.5 292 72.0051 292 101V146.5C292 160.031 302.969 171 316.5 171V171C330.031 171 341 160.031 341 146.5V146.5C341 132.969 351.969 122 365.5 122H394"
    stroke="url(#mono_stroke)"
    stroke-width="18"
    stroke-linecap="round"
    stroke-linejoin="round"
  />
  <path d="M464.894 174V69H539.113V87.795H488.347V111.527H534.867V130.322H488.347V174H464.894Z" fill="url(#mono_text)"/>
  <path d="M553.784 174V69H631.749V87.795H577.237V110.74H627.221V129.535H577.237V155.205H633.59V174H553.784Z" fill="url(#mono_text)"/>
  <path d="M679.632 175.68C647.561 175.68 627.376 155.355 627.376 120.75C627.376 86.145 647.561 65.82 679.632 65.82C705.043 65.82 723.838 77.88 729.514 100.725H705.323C701.633 89.8 692.983 84.2999 679.632 84.2999C663.307 84.2999 651.562 96.36 651.562 120.75C651.562 145.14 663.307 157.2 679.632 157.2C692.983 157.2 701.633 151.7 705.323 140.775H729.514C723.838 163.62 705.043 175.68 679.632 175.68Z" fill="url(#mono_text)"/>
  <path d="M741.759 174V69H765.212V155.52H818.499V174H741.759Z" fill="url(#mono_text)"/>
  <path d="M840.866 175.68C811.331 175.68 791.707 155.04 791.707 120.75C791.707 86.4599 811.331 65.82 840.866 65.82C870.401 65.82 890.025 86.4599 890.025 120.75C890.025 155.04 870.401 175.68 840.866 175.68ZM840.866 156.885C856.663 156.885 865.82 143.955 865.82 120.75C865.82 97.5449 856.663 84.6149 840.866 84.6149C825.069 84.6149 815.912 97.5449 815.912 120.75C815.912 143.955 825.069 156.885 840.866 156.885Z" fill="url(#mono_text)"/>
  <path d="M947.828 175.68C918.293 175.68 898.669 155.04 898.669 120.75C898.669 86.4599 918.293 65.82 947.828 65.82C973.239 65.82 991.35 77.595 996.314 99.7299H972.194C968.646 89.66 960.562 84.455 947.828 84.455C932.031 84.455 922.874 97.385 922.874 120.75C922.874 144.255 932.173 157.045 948.254 157.045C960.466 157.045 969.126 150.95 972.357 139.61H946.722V122H996.026V174H976.433L974.593 159.975C968.359 170.175 958.783 175.68 947.828 175.68Z" fill="url(#mono_text)"/>
  <path d="M1016.07 174V69H1094.04V87.795H1039.53V110.74H1089.52V129.535H1039.53V155.205H1095.88V174H1016.07Z" fill="url(#mono_text)"/>
  <defs>
    <linearGradient id="mono_stroke" x1="85" y1="18" x2="394" y2="226" gradientUnits="userSpaceOnUse">
      <stop stop-color="#FFFFFF" />
      <stop offset="1" stop-color="#E9EDF7" />
    </linearGradient>
    <linearGradient id="mono_text" x1="464" y1="121" x2="1096" y2="121" gradientUnits="userSpaceOnUse">
      <stop stop-color="#FFFFFF" />
      <stop offset="0.74" stop-color="#F6F8FC" />
      <stop offset="1" stop-color="#D9DFEC" />
    </linearGradient>
  </defs>
</svg>
